# Blender 4.4.1
# www.blender.org
mtllib load.mtl
o Cube
v -10.000000 0.300000 4.000000
v -10.000000 -0.300000 4.000000
v -10.000000 0.300000 -4.000000
v -10.000000 -0.300000 -4.000000
v 10.000000 0.300000 4.000000
v 10.000000 -0.300000 4.000000
v 10.000000 0.300000 -4.000000
v 10.000000 -0.300000 -4.000000
v 10.000001 -0.310000 -6.000000
v 10.000001 -0.310000 -4.000000
v 10.000001 0.490000 -6.000000
v -10.000001 -0.310000 -6.000000
v -10.000001 -0.310000 -4.000000
v -10.000001 0.490000 -6.000000
v -10.000001 0.490000 -4.000000
v 10.000001 0.490000 -4.000000
v 10.000001 -0.310000 4.000000
v 10.000001 -0.310000 6.000000
v 10.000001 0.490000 4.000000
v -10.000001 -0.310000 4.000000
v -10.000001 -0.310000 6.000000
v -10.000001 0.490000 4.000000
v -10.000001 0.490000 6.000000
v 10.000001 0.490000 6.000000
v 10.000001 0.490000 6.000000
v 10.000001 0.490000 10.000000
v -10.000001 0.490000 6.000000
v -10.000001 0.490000 10.000000
v 9.870109 0.500000 6.000000
v 9.870109 0.500000 10.000000
v 9.870109 6.500000 6.000000
v 5.870108 0.500000 6.000000
v 5.870108 0.500000 10.000000
v 5.870108 6.500000 6.000000
v 5.870108 6.500000 10.000000
v 9.870109 6.500000 10.000000
v 5.378859 0.500000 6.030036
v 5.378859 0.500000 7.030036
v 5.378859 4.500000 6.030036
v -2.621142 0.500000 6.030036
v -2.621142 0.500000 7.030036
v -2.621142 4.500000 6.030036
v -2.621142 4.500000 7.030036
v 5.378859 4.500000 7.030036
v -2.963212 0.500000 6.000000
v -2.963212 0.500000 10.000000
v -2.963212 6.500000 6.000000
v -8.963212 0.500000 6.000000
v -8.963212 0.500000 10.000000
v -8.963212 6.500000 6.000000
v -8.963212 6.500000 10.000000
v -2.963212 6.500000 10.000000
vn -0.0000 1.0000 -0.0000
vn -0.0000 -0.0000 -1.0000
vn 1.0000 -0.0000 -0.0000
vn -0.0000 -1.0000 -0.0000
vn -1.0000 -0.0000 -0.0000
vn -0.0000 -0.0000 1.0000
vt 0.190227 0.672831
vt 0.069576 0.371204
vt 0.190227 0.371204
vt 0.060527 0.672831
vt 0.060527 0.371204
vt 0.069576 0.672831
vt 0.190227 0.681880
vt 0.069576 0.681880
vt 0.190227 0.362155
vt 0.069576 0.060527
vt 0.190227 0.060527
vt 0.069576 0.362155
vt 0.199276 0.371204
vt 0.199276 0.672831
vt 0.362558 0.386285
vt 0.332395 0.374220
vt 0.362558 0.374220
vt 0.332395 0.072592
vt 0.374623 0.072592
vt 0.362558 0.072592
vt 0.332395 0.060527
vt 0.404786 0.374220
vt 0.404786 0.072592
vt 0.320330 0.374220
vt 0.598231 0.386285
vt 0.568068 0.374220
vt 0.598231 0.374220
vt 0.568068 0.072592
vt 0.610296 0.072592
vt 0.598231 0.072592
vt 0.568068 0.060527
vt 0.556003 0.374220
vt 0.525840 0.072592
vt 0.556003 0.072592
vt 0.731350 0.060527
vt 0.791675 0.362155
vt 0.731350 0.362155
vt 0.682686 0.627990
vt 0.592198 0.688316
vt 0.592198 0.627990
vt 0.682686 0.567665
vt 0.592198 0.567665
vt 0.682686 0.507339
vt 0.592198 0.507339
vt 0.743012 0.627990
vt 0.743012 0.567665
vt 0.924392 0.643072
vt 0.864066 0.658153
vt 0.864066 0.643072
vt 0.924392 0.522421
vt 0.864066 0.522421
vt 0.924392 0.507339
vt 0.864066 0.507339
vt 0.939473 0.643072
vt 0.939473 0.522421
vt 0.410818 0.658153
vt 0.320330 0.718479
vt 0.320330 0.658153
vt 0.410818 0.567665
vt 0.320330 0.567665
vt 0.410818 0.507339
vt 0.320330 0.507339
vt 0.471144 0.658153
vt 0.471144 0.567665
vt 0.332395 0.386285
vt 0.374623 0.374220
vt 0.362558 0.060527
vt 0.320330 0.072592
vt 0.568068 0.386285
vt 0.610296 0.374220
vt 0.598231 0.060527
vt 0.525840 0.374220
vt 0.791675 0.060527
vt 0.682686 0.688316
vt 0.924392 0.658153
vt 0.410818 0.718479
s 0
usemtl Material
f 5/1/1 3/2/1 1/3/1
f 3/2/2 8/4/2 4/5/2
f 7/6/3 6/7/3 8/8/3
f 2/9/4 8/10/4 6/11/4
f 1/3/5 4/12/5 2/9/5
f 5/1/6 2/13/6 6/14/6
f 11/15/3 10/16/3 9/17/3
f 13/18/4 9/17/4 10/16/4
f 14/19/2 9/17/2 12/20/2
f 15/21/5 12/20/5 13/18/5
f 16/22/1 14/19/1 15/23/1
f 16/24/6 13/18/6 10/16/6
f 19/25/3 18/26/3 17/27/3
f 21/28/4 17/27/4 18/26/4
f 22/29/2 17/27/2 20/30/2
f 23/31/5 20/30/5 21/28/5
f 24/32/1 22/33/1 23/34/1
f 24/32/6 21/28/6 18/26/6
f 27/35/1 26/36/1 25/37/1
f 31/38/3 30/39/3 29/40/3
f 34/41/2 29/40/2 32/42/2
f 35/43/5 32/42/5 33/44/5
f 36/45/1 34/41/1 35/46/1
f 39/47/3 38/48/3 37/49/3
f 42/50/2 37/49/2 40/51/2
f 43/52/5 40/51/5 41/53/5
f 44/54/1 42/50/1 43/55/1
f 47/56/3 46/57/3 45/58/3
f 50/59/2 45/58/2 48/60/2
f 51/61/5 48/60/5 49/62/5
f 52/63/1 50/59/1 51/64/1
f 5/1/1 7/6/1 3/2/1
f 3/2/2 7/6/2 8/4/2
f 7/6/3 5/1/3 6/7/3
f 2/9/4 4/12/4 8/10/4
f 1/3/5 3/2/5 4/12/5
f 5/1/6 1/3/6 2/13/6
f 11/15/3 16/65/3 10/16/3
f 13/18/4 12/20/4 9/17/4
f 14/19/2 11/66/2 9/17/2
f 15/21/5 14/67/5 12/20/5
f 16/22/1 11/66/1 14/19/1
f 16/24/6 15/68/6 13/18/6
f 19/25/3 24/69/3 18/26/3
f 21/28/4 20/30/4 17/27/4
f 22/29/2 19/70/2 17/27/2
f 23/31/5 22/71/5 20/30/5
f 24/32/1 19/72/1 22/33/1
f 24/32/6 23/34/6 21/28/6
f 27/35/1 28/73/1 26/36/1
f 31/38/3 36/74/3 30/39/3
f 34/41/2 31/38/2 29/40/2
f 35/43/5 34/41/5 32/42/5
f 36/45/1 31/38/1 34/41/1
f 39/47/3 44/75/3 38/48/3
f 42/50/2 39/47/2 37/49/2
f 43/52/5 42/50/5 40/51/5
f 44/54/1 39/47/1 42/50/1
f 47/56/3 52/76/3 46/57/3
f 50/59/2 47/56/2 45/58/2
f 51/61/5 50/59/5 48/60/5
f 52/63/1 47/56/1 50/59/1
