# Blender 4.4.1
# www.blender.org
mtllib shockWave.mtl
o 円柱
v 0.000000 -1.000000 1.000000
v 0.000000 1.000000 1.000000
v -0.195090 -1.000000 0.980785
v -0.195090 1.000000 0.980785
v -0.382683 -1.000000 0.923880
v -0.382683 1.000000 0.923880
v -0.555570 -1.000000 0.831470
v -0.555570 1.000000 0.831470
v -0.707107 -1.000000 0.707107
v -0.707107 1.000000 0.707107
v -0.831470 -1.000000 0.555570
v -0.831470 1.000000 0.555570
v -0.923880 -1.000000 0.382683
v -0.923880 1.000000 0.382683
v -0.980785 -1.000000 0.195090
v -0.980785 1.000000 0.195090
v -1.000000 -1.000000 0.000000
v -1.000000 1.000000 0.000000
v -0.980785 -1.000000 -0.195090
v -0.980785 1.000000 -0.195090
v -0.923880 -1.000000 -0.382683
v -0.923880 1.000000 -0.382683
v -0.831470 -1.000000 -0.555570
v -0.831470 1.000000 -0.555570
v -0.707107 -1.000000 -0.707107
v -0.707107 1.000000 -0.707107
v -0.555570 -1.000000 -0.831470
v -0.555570 1.000000 -0.831470
v -0.382683 -1.000000 -0.923880
v -0.382683 1.000000 -0.923880
v -0.195090 -1.000000 -0.980785
v -0.195090 1.000000 -0.980785
v 0.000000 -1.000000 -1.000000
v 0.000000 1.000000 -1.000000
v 0.195090 -1.000000 -0.980785
v 0.195090 1.000000 -0.980785
v 0.382683 -1.000000 -0.923880
v 0.382683 1.000000 -0.923880
v 0.555570 -1.000000 -0.831470
v 0.555570 1.000000 -0.831470
v 0.707107 -1.000000 -0.707107
v 0.707107 1.000000 -0.707107
v 0.831470 -1.000000 -0.555570
v 0.831470 1.000000 -0.555570
v 0.923880 -1.000000 -0.382683
v 0.923880 1.000000 -0.382683
v 0.980785 -1.000000 -0.195090
v 0.980785 1.000000 -0.195090
v 1.000000 -1.000000 0.000000
v 1.000000 1.000000 0.000000
v 0.980785 -1.000000 0.195090
v 0.980785 1.000000 0.195090
v 0.923880 -1.000000 0.382683
v 0.923880 1.000000 0.382683
v 0.831470 -1.000000 0.555570
v 0.831470 1.000000 0.555570
v 0.707107 -1.000000 0.707107
v 0.707107 1.000000 0.707107
v 0.555570 -1.000000 0.831470
v 0.555570 1.000000 0.831470
v 0.382683 -1.000000 0.923880
v 0.382683 1.000000 0.923880
v 0.195090 -1.000000 0.980785
v 0.195090 1.000000 0.980785
vn -0.0980 -0.0000 0.9952
vn -0.2903 -0.0000 0.9569
vn -0.4714 -0.0000 0.8819
vn -0.6344 -0.0000 0.7730
vn -0.7730 -0.0000 0.6344
vn -0.8819 -0.0000 0.4714
vn -0.9569 -0.0000 0.2903
vn -0.9952 -0.0000 0.0980
vn -0.9952 -0.0000 -0.0980
vn -0.9569 -0.0000 -0.2903
vn -0.8819 -0.0000 -0.4714
vn -0.7730 -0.0000 -0.6344
vn -0.6344 -0.0000 -0.7730
vn -0.4714 -0.0000 -0.8819
vn -0.2903 -0.0000 -0.9569
vn -0.0980 -0.0000 -0.9952
vn 0.0980 -0.0000 -0.9952
vn 0.2903 -0.0000 -0.9569
vn 0.4714 -0.0000 -0.8819
vn 0.6344 -0.0000 -0.7730
vn 0.7730 -0.0000 -0.6344
vn 0.8819 -0.0000 -0.4714
vn 0.9569 -0.0000 -0.2903
vn 0.9952 -0.0000 -0.0980
vn 0.9952 -0.0000 0.0980
vn 0.9569 -0.0000 0.2903
vn 0.8819 -0.0000 0.4714
vn 0.7730 -0.0000 0.6344
vn 0.6344 -0.0000 0.7730
vn 0.4714 -0.0000 0.8819
vn 0.2903 -0.0000 0.9569
vn 0.0980 -0.0000 0.9952
vt 0.318842 0.500000
vt 0.000056 0.531246
vt 0.000056 0.500000
vt 0.318842 0.531246
vt 0.000056 0.562493
vt 0.318842 0.562493
vt 0.000056 0.593739
vt 0.318842 0.593739
vt 0.000056 0.624986
vt 0.318842 0.624986
vt 0.000056 0.656232
vt 0.318842 0.656232
vt 0.000056 0.687479
vt 0.318842 0.687479
vt 0.000056 0.718725
vt 0.318842 0.718725
vt 0.000056 0.749972
vt 0.318842 0.749972
vt 0.000056 0.781218
vt 0.318842 0.781218
vt 0.000056 0.812465
vt 0.318842 0.812465
vt 0.000056 0.843711
vt 0.318842 0.843711
vt 0.000056 0.874958
vt 0.318842 0.874958
vt 0.000056 0.906204
vt 0.318842 0.906204
vt 0.000056 0.937451
vt 0.318842 0.937451
vt 0.000056 0.968697
vt 0.318842 0.968697
vt 0.000056 0.999943
vt 0.318842 0.000056
vt 0.000056 0.031303
vt 0.000056 0.000056
vt 0.318842 0.031303
vt 0.000056 0.062549
vt 0.318842 0.062549
vt 0.000056 0.093796
vt 0.318842 0.093796
vt 0.000056 0.125042
vt 0.318842 0.125042
vt 0.000056 0.156289
vt 0.318842 0.156289
vt 0.000056 0.187535
vt 0.318842 0.187535
vt 0.000056 0.218782
vt 0.318842 0.218782
vt 0.000056 0.250028
vt 0.318842 0.250028
vt 0.000056 0.281275
vt 0.318842 0.281275
vt 0.000056 0.312521
vt 0.318842 0.312521
vt 0.000056 0.343768
vt 0.318842 0.343768
vt 0.000056 0.375014
vt 0.318842 0.375014
vt 0.000056 0.406261
vt 0.318842 0.406261
vt 0.000056 0.437507
vt 0.318842 0.437507
vt 0.000056 0.468754
vt 0.318842 0.468754
vt 0.318842 0.999943
s 0
usemtl マテリアル
f 2/1/1 3/2/1 1/3/1
f 4/4/2 5/5/2 3/2/2
f 6/6/3 7/7/3 5/5/3
f 8/8/4 9/9/4 7/7/4
f 10/10/5 11/11/5 9/9/5
f 12/12/6 13/13/6 11/11/6
f 14/14/7 15/15/7 13/13/7
f 16/16/8 17/17/8 15/15/8
f 18/18/9 19/19/9 17/17/9
f 20/20/10 21/21/10 19/19/10
f 22/22/11 23/23/11 21/21/11
f 24/24/12 25/25/12 23/23/12
f 26/26/13 27/27/13 25/25/13
f 28/28/14 29/29/14 27/27/14
f 30/30/15 31/31/15 29/29/15
f 32/32/16 33/33/16 31/31/16
f 34/34/17 35/35/17 33/36/17
f 36/37/18 37/38/18 35/35/18
f 38/39/19 39/40/19 37/38/19
f 40/41/20 41/42/20 39/40/20
f 42/43/21 43/44/21 41/42/21
f 44/45/22 45/46/22 43/44/22
f 46/47/23 47/48/23 45/46/23
f 48/49/24 49/50/24 47/48/24
f 50/51/25 51/52/25 49/50/25
f 52/53/26 53/54/26 51/52/26
f 54/55/27 55/56/27 53/54/27
f 56/57/28 57/58/28 55/56/28
f 58/59/29 59/60/29 57/58/29
f 60/61/30 61/62/30 59/60/30
f 62/63/31 63/64/31 61/62/31
f 64/65/32 1/3/32 63/64/32
f 2/1/1 4/4/1 3/2/1
f 4/4/2 6/6/2 5/5/2
f 6/6/3 8/8/3 7/7/3
f 8/8/4 10/10/4 9/9/4
f 10/10/5 12/12/5 11/11/5
f 12/12/6 14/14/6 13/13/6
f 14/14/7 16/16/7 15/15/7
f 16/16/8 18/18/8 17/17/8
f 18/18/9 20/20/9 19/19/9
f 20/20/10 22/22/10 21/21/10
f 22/22/11 24/24/11 23/23/11
f 24/24/12 26/26/12 25/25/12
f 26/26/13 28/28/13 27/27/13
f 28/28/14 30/30/14 29/29/14
f 30/30/15 32/32/15 31/31/15
f 32/32/16 34/66/16 33/33/16
f 34/34/17 36/37/17 35/35/17
f 36/37/18 38/39/18 37/38/18
f 38/39/19 40/41/19 39/40/19
f 40/41/20 42/43/20 41/42/20
f 42/43/21 44/45/21 43/44/21
f 44/45/22 46/47/22 45/46/22
f 46/47/23 48/49/23 47/48/23
f 48/49/24 50/51/24 49/50/24
f 50/51/25 52/53/25 51/52/25
f 52/53/26 54/55/26 53/54/26
f 54/55/27 56/57/27 55/56/27
f 56/57/28 58/59/28 57/58/28
f 58/59/29 60/61/29 59/60/29
f 60/61/30 62/63/30 61/62/30
f 62/63/31 64/65/31 63/64/31
f 64/65/32 2/1/32 1/3/32
