# Blender 4.1.1
# www.blender.org
mtllib brickWall.mtl
o 立方体
v 12.000000 0.450000 6.000000
v 12.000000 0.450000 8.000000
v -12.000000 0.450000 6.000000
v -12.000000 0.450000 8.000000
v 12.000000 0.300000 -4.000000
v 12.000000 0.300000 4.000000
v -12.000000 0.300000 -4.000000
v -12.000000 0.300000 4.000000
v 12.000000 0.450000 -6.000000
v 12.000000 -0.450000 -4.000000
v 12.000000 0.450000 -4.000000
v -12.000000 0.450000 -6.000000
v -12.000000 -0.450000 -4.000000
v -12.000000 0.450000 -4.000000
v 12.000000 -0.450000 4.000000
v 12.000000 0.450000 4.000000
v 12.000000 0.450000 6.000000
v -12.000000 -0.450000 4.000000
v -12.000000 0.450000 4.000000
v -12.000000 0.450000 6.000000
v 12.000000 0.450000 6.000000
v 12.000000 6.450000 6.000000
v 12.000000 0.450000 8.000000
v 12.000000 6.450000 8.000000
v -12.000000 0.450000 6.000000
v -12.000000 6.450000 6.000000
v -12.000000 0.450000 8.000000
v -12.000000 6.450000 8.000000
vn -0.0000 1.0000 -0.0000
vn -0.0000 -0.0000 1.0000
vn -0.0000 -0.0000 -1.0000
vn 1.0000 -0.0000 -0.0000
vn -1.0000 -0.0000 -0.0000
vt 0.946368 0.564100
vt 0.903829 0.053633
vt 0.946368 0.053633
vt 0.458670 0.564100
vt 0.288514 0.053633
vt 0.458670 0.053633
vt 0.585078 0.053633
vt 0.565935 0.564100
vt 0.565935 0.053633
vt 0.627617 0.564100
vt 0.585078 0.564100
vt 0.754025 0.053633
vt 0.734882 0.564100
vt 0.734882 0.053633
vt 0.796564 0.564100
vt 0.796564 0.053633
vt 0.181249 0.606639
vt 0.053633 0.649178
vt 0.053633 0.606639
vt 0.181249 0.053633
vt 0.053633 0.096171
vt 0.053633 0.053633
vt 0.181249 0.096171
vt 0.903829 0.564100
vt 0.288515 0.564100
vt 0.627617 0.053633
vt 0.754025 0.564100
vt 0.181249 0.649178
s 0
usemtl マテリアル.004
f 2/1/1 3/2/1 4/3/1
f 11/7/2 13/8/2 10/9/2
f 11/7/1 12/10/1 14/11/1
f 19/12/3 15/13/3 18/14/3
f 17/15/1 19/12/1 20/16/1
f 22/17/4 23/18/4 21/19/4
f 28/20/5 25/21/5 27/22/5
f 26/23/3 21/19/3 25/21/3
f 2/1/1 1/24/1 3/2/1
f 11/7/2 14/11/2 13/8/2
f 11/7/1 9/26/1 12/10/1
f 19/12/3 16/27/3 15/13/3
f 17/15/1 16/27/1 19/12/1
f 22/17/4 24/28/4 23/18/4
f 28/20/5 26/23/5 25/21/5
f 26/23/3 22/17/3 21/19/3
usemtl マテリアル.005
f 6/4/1 7/5/1 8/6/1
f 6/4/1 5/25/1 7/5/1
